<svg width="30" height="30" viewBox="0 0 30 30" fill="none" xmlns="http://www.w3.org/2000/svg">
<path d="M15.0558 16.0215C17.2707 16.0215 18.2977 17.703 18.5143 20.0898C18.5653 20.6612 18.5119 21.4937 18.4388 22.4584C18.1899 25.6628 17.9035 29.6003 20.0372 29.6003C21.8414 29.6003 22.7686 26.1381 23.3035 22.1922C23.82 18.2856 23.273 16.3417 23.5416 14.6073C24.0544 11.3209 26.9236 8.37436 26.0372 4.18374C25.5464 1.85921 24.2668 0.765611 22.9983 0.306236C20.0775 -0.756889 18.1913 1.29155 15.0549 1.29155C11.9185 1.29155 10.0327 -0.756889 7.1105 0.306236C5.84347 0.765611 4.56378 1.85921 4.07206 4.18374C3.1866 8.37389 6.05441 11.3209 6.56863 14.6073C6.83722 16.3417 6.29066 18.2856 6.80722 22.1922C7.34206 26.1386 8.26925 29.6003 10.0735 29.6003C12.2058 29.6003 11.9213 25.6628 11.6719 22.4584C11.5988 21.4942 11.5449 20.6612 11.596 20.0898C11.8116 17.703 12.8532 16.0215 15.0549 16.0215H15.0558Z" fill="#001A78"/>
</svg>
